<?xml version="1.0" encoding="iso-8859-1"?>
<!-- Generator: Adobe Illustrator 22.1.0, SVG Export Plug-In . SVG Version: 6.00 Build 0)  -->
<svg xmlns="http://www.w3.org/2000/svg" xmlns:xlink="http://www.w3.org/1999/xlink" version="1.1" id="Layer_32" x="0px" y="0px" viewBox="0 0 64 64" style="enable-background:new 0 0 64 64;" xml:space="preserve" width="512" height="512">
<g>
	<g>
		<rect x="2" y="2" style="fill:#B19231;" width="16" height="16"/>
	</g>
	<g>
		<rect x="2" y="2" style="fill:#ECC341;" width="13" height="16"/>
	</g>
	<g>
		<rect x="18" y="18" style="fill:#B19231;" width="16" height="16"/>
	</g>
	<g>
		<rect x="18" y="18" style="fill:#ECC341;" width="13" height="16"/>
	</g>
	<g>
		<rect x="2" y="34" style="fill:#B19231;" width="16" height="16"/>
	</g>
	<g>
		<rect x="2" y="34" style="fill:#ECC341;" width="13" height="16"/>
	</g>
	<g>
		<rect x="34" y="34" style="fill:#B19231;" width="16" height="16"/>
	</g>
	<g>
		<rect x="34" y="34" style="fill:#ECC341;" width="13" height="16"/>
	</g>
	<g>
		<rect x="34" y="2" style="fill:#B19231;" width="16" height="16"/>
	</g>
	<g>
		<rect x="34" y="2" style="fill:#ECC341;" width="13" height="16"/>
	</g>
	<g>
		<rect x="18" y="2" style="fill:#008B4E;" width="16" height="16"/>
	</g>
	<g>
		<rect x="18" y="2" style="fill:#00B968;" width="13" height="16"/>
	</g>
	<g>
		<rect x="18" y="34" style="fill:#008B4E;" width="16" height="16"/>
	</g>
	<g>
		<rect x="18" y="34" style="fill:#00B968;" width="13" height="16"/>
	</g>
	<g>
		<rect x="2" y="18" style="fill:#008B4E;" width="16" height="16"/>
	</g>
	<g>
		<rect x="2" y="18" style="fill:#00B968;" width="13" height="16"/>
	</g>
	<g>
		<rect x="34" y="18" style="fill:#008B4E;" width="16" height="16"/>
	</g>
	<g>
		<rect x="34" y="18" style="fill:#00B968;" width="13" height="16"/>
	</g>
	<g>
		<polyline style="fill:#FDDFB1;" points="31.986,55.025 28,62 34.975,58.014   "/>
	</g>
	<g>
		
			<rect x="53.284" y="29.372" transform="matrix(0.7071 -0.7071 0.7071 0.7071 -5.4183 49.8907)" style="fill:#B3B3B3;" width="8.46" height="4.228"/>
	</g>
	<g>
		
			<rect x="27.762" y="42.918" transform="matrix(0.7071 -0.7071 0.7071 0.7071 -18.9645 44.2796)" style="fill:#CA743A;" width="32.411" height="4.228"/>
	</g>
	<g>
		<g>
			<path style="fill:#737373;" d="M13,15H8c-0.553,0-1-0.447-1-1v-4c0-0.553,0.447-1,1-1h3V7H7V5h5c0.553,0,1,0.447,1,1v4     c0,0.553-0.447,1-1,1H9v2h4V15z"/>
		</g>
	</g>
	<g>
		<path style="fill:#737373;" d="M44,5h-5v2h4v2h-4v2h4v2h-4v2h5c0.553,0,1-0.447,1-1v-4V6C45,5.447,44.553,5,44,5z"/>
	</g>
	<g>
		<path style="fill:#737373;" d="M11,45v-7c0-0.404-0.243-0.77-0.617-0.924c-0.374-0.156-0.804-0.07-1.09,0.217l-3,3l1.414,1.414    L9,40.414V45H7v2h6v-2H11z"/>
	</g>
	<g>
		<g>
			<path style="fill:#737373;" d="M44,31h-5v-2h4v-2h-3c-0.553,0-1-0.447-1-1v-4c0-0.553,0.447-1,1-1h5v2h-4v2h3     c0.553,0,1,0.447,1,1v4C45,30.553,44.553,31,44,31z"/>
		</g>
	</g>
	<g>
		<g>
			<rect x="35" y="60" style="fill:#737373;" width="19" height="2"/>
		</g>
	</g>
	<g>
		<g>
			<rect x="56" y="60" style="fill:#737373;" width="2" height="2"/>
		</g>
	</g>
</g>
</svg>
